<?xml version="1.0" standalone="no"?>
<!DOCTYPE svg PUBLIC "-//W3C//DTD SVG 20010904//EN"
 "http://www.w3.org/TR/2001/REC-SVG-20010904/DTD/svg10.dtd">
<svg version="1.0" xmlns="http://www.w3.org/2000/svg"
 width="700.000000pt" height="700.000000pt" viewBox="0 0 700.000000 700.000000"
 preserveAspectRatio="xMidYMid meet">
<metadata>
Created by potrace 1.11, written by Peter Selinger 2001-2013
</metadata>
<g transform="translate(0.000000,700.000000) scale(0.100000,-0.100000)"
fill="#000000" stroke="none">
<path d="M3278 6996 c-1 -2 -42 -7 -89 -10 -47 -4 -94 -8 -105 -10 -10 -2 -46
-7 -79 -11 -87 -12 -84 -11 -155 -24 -206 -38 -504 -126 -665 -195 -274 -119
-495 -238 -667 -361 -31 -22 -66 -47 -78 -55 -43 -29 -185 -144 -259 -209
-367 -325 -685 -756 -871 -1181 -23 -52 -46 -104 -51 -115 -58 -125 -147 -421
-190 -630 -7 -33 -13 -62 -14 -65 0 -3 -4 -27 -9 -55 -4 -27 -9 -63 -12 -79
-3 -16 -7 -50 -9 -75 -3 -25 -8 -82 -12 -126 -16 -161 -8 -572 13 -710 2 -16
6 -48 9 -70 42 -374 195 -835 401 -1207 103 -187 321 -498 438 -624 81 -87
141 -143 146 -137 4 4 34 60 68 123 l61 116 -42 44 c-52 55 -118 134 -184 220
-58 76 -193 276 -193 286 0 4 -6 15 -14 23 -20 23 -146 271 -189 371 -37 89
-127 330 -145 390 -6 19 -16 60 -21 90 -6 30 -18 89 -26 130 -9 41 -19 91 -21
110 -2 19 -9 60 -14 90 -5 30 -12 84 -15 120 -3 36 -8 83 -10 105 -6 46 -6
416 -1 460 2 17 7 64 10 105 4 41 11 104 17 140 6 36 12 76 14 90 47 335 239
833 446 1157 57 89 211 302 242 335 6 7 34 39 61 71 112 134 291 302 462 435
204 158 496 333 673 402 30 12 73 29 95 40 128 57 416 143 591 174 17 3 41 8
55 11 38 8 247 34 320 40 79 7 394 7 470 1 92 -8 174 -17 200 -21 14 -2 43 -7
65 -10 43 -6 58 -8 145 -26 1054 -210 1952 -956 2354 -1952 65 -161 105 -284
145 -442 40 -164 68 -333 87 -545 5 -53 4 -409 -1 -460 -2 -25 -7 -74 -10
-110 -3 -36 -7 -76 -10 -90 -30 -187 -41 -242 -66 -344 -218 -874 -783 -1610
-1575 -2055 -183 -102 -390 -191 -599 -255 -133 -42 -145 -45 -172 -51 -10 -2
-61 -13 -113 -25 -96 -22 -112 -25 -185 -35 -22 -3 -51 -7 -65 -10 -23 -5 -53
-8 -200 -20 -58 -5 -416 -6 -455 -1 -16 2 -65 7 -107 10 -43 4 -88 9 -100 11
-13 2 -68 11 -123 21 -293 49 -596 149 -886 293 l-137 67 -61 -117 -61 -117
52 -30 c256 -144 664 -289 973 -346 118 -22 135 -25 185 -32 25 -3 56 -7 70
-10 163 -26 653 -25 850 2 89 12 104 15 124 19 12 2 37 7 56 10 324 47 759
201 1094 387 328 182 687 472 918 742 34 39 64 73 68 76 4 3 44 55 90 115 344
454 561 944 664 1505 13 74 28 167 32 205 3 39 8 84 11 100 8 56 10 540 2 605
-4 36 -10 90 -13 120 -8 73 -12 103 -26 180 -6 36 -13 79 -16 95 -3 17 -21 91
-39 165 -177 713 -579 1354 -1150 1835 -97 82 -346 265 -360 265 -2 0 -35 20
-72 44 -84 53 -270 151 -383 201 -47 20 -100 43 -117 51 -164 74 -531 176
-753 210 -25 3 -54 8 -65 10 -11 2 -47 7 -80 10 -33 3 -71 8 -85 11 -28 5
-546 14 -552 9z"/>
<path d="M5117 4604 c-1 -1 -40 -4 -87 -8 -359 -26 -668 -164 -916 -411 -55
-55 -124 -131 -152 -170 -91 -122 -222 -410 -247 -545 -53 -276 -54 -497 -5
-679 107 -390 404 -632 855 -695 135 -19 409 -14 505 10 14 3 34 8 46 10 107
20 295 103 408 179 146 99 132 73 188 348 48 239 53 263 63 322 4 17 15 73 26
125 11 52 22 109 25 125 2 17 9 45 14 63 4 17 5 33 2 33 -47 8 -62 6 -66 -9
-4 -14 -23 -109 -40 -198 -2 -11 -16 -81 -31 -155 -15 -74 -29 -145 -31 -159
-3 -14 -17 -81 -31 -150 -14 -69 -27 -138 -30 -155 -7 -48 -26 -68 -117 -128
-170 -114 -346 -178 -551 -202 -50 -6 -236 -6 -290 -1 -112 12 -153 19 -239
41 -378 98 -618 372 -663 755 -15 130 -4 344 23 460 3 14 8 36 11 50 21 119
126 356 216 489 116 172 349 368 537 454 61 28 167 68 190 72 3 1 46 11 95 23
108 26 212 36 360 35 334 -1 577 -81 749 -243 51 -48 51 -48 74 -30 12 10 22
23 22 28 0 15 -97 99 -160 140 -144 92 -339 152 -541 168 -88 6 -208 11 -212
8z"/>
<path d="M2435 3852 c-32 -20 -158 -72 -295 -122 -141 -52 -249 -120 -400
-250 -116 -101 -201 -171 -260 -218 -73 -58 -200 -191 -200 -209 0 -20 -76
-139 -99 -156 -27 -20 -81 -108 -92 -152 -6 -22 -21 -76 -34 -120 -41 -143
-20 -261 62 -354 95 -107 205 -115 426 -29 45 17 87 35 92 39 6 4 55 30 110
59 230 120 292 162 390 265 122 128 160 147 92 46 -17 -25 -31 -52 -32 -61 0
-8 -4 -21 -9 -28 -4 -6 -5 -12 -2 -12 5 0 -65 -119 -136 -230 -59 -93 -128
-218 -210 -383 -43 -87 -107 -202 -142 -255 -35 -53 -88 -137 -118 -187 -30
-49 -81 -132 -113 -183 -31 -52 -75 -135 -97 -185 -21 -51 -45 -106 -53 -124
-8 -17 -15 -41 -15 -52 0 -12 -26 -74 -59 -139 -32 -64 -64 -136 -71 -160 -15
-47 -26 -54 -33 -19 -4 17 -5 15 -5 -8 0 -16 -1 -32 -2 -35 -1 -3 -3 -13 -5
-22 -2 -9 -25 -45 -51 -80 -69 -91 -73 -99 -22 -44 25 27 53 50 62 52 10 1 13
-2 9 -9 -4 -7 -8 -17 -9 -24 -1 -6 -14 -24 -28 -39 -14 -16 -23 -30 -21 -33 3
-2 14 8 26 23 11 14 25 23 30 20 6 -3 3 -14 -8 -27 -12 -14 -13 -18 -3 -12 8
5 3 -7 -13 -27 -37 -50 -36 -69 3 -58 16 5 43 6 59 4 17 -3 41 1 53 8 13 7 26
11 30 10 4 -1 16 14 28 33 12 19 23 35 26 35 3 0 -12 -41 -25 -65 -4 -6 2 -2
12 8 19 21 22 16 7 -13 -8 -15 -6 -20 9 -25 26 -8 51 4 51 26 0 10 14 49 31
86 17 37 47 108 67 158 26 68 48 104 86 145 67 72 96 114 102 147 12 68 232
470 249 455 5 -4 5 -2 2 4 -4 6 15 56 42 110 149 305 182 377 186 405 2 18 8
35 12 38 20 15 53 71 41 71 -6 0 2 15 19 33 30 32 135 189 188 282 16 28 39
64 52 81 12 17 23 35 23 41 0 6 10 23 22 39 13 15 17 24 9 20 -8 -5 -12 -5
-10 0 8 18 214 290 241 319 51 53 164 216 242 350 43 74 101 158 135 195 69
74 79 102 56 156 -17 42 -75 103 -75 79 0 -28 -24 -28 -46 0 -20 25 -30 29
-75 30 -36 0 -54 -4 -57 -14 -3 -8 0 -11 6 -7 6 4 8 -2 5 -13 -3 -11 -11 -17
-18 -15 -7 3 -16 0 -21 -7 -4 -8 -3 -10 4 -5 24 15 11 -13 -22 -46 -21 -21
-53 -39 -82 -47 -44 -12 -53 -20 -89 -77 -22 -35 -43 -64 -47 -64 -4 0 -9 -8
-12 -18 -8 -23 -99 -117 -136 -139 -26 -15 -27 -18 -14 -38 13 -20 10 -23 -38
-60 -76 -58 -96 -71 -80 -55 16 18 16 38 0 22 -7 -7 -17 -12 -22 -12 -6 1 0
10 13 21 13 11 22 21 20 23 -6 6 -139 -85 -178 -121 -18 -17 -41 -38 -51 -46
-26 -22 -351 -204 -379 -212 -35 -11 -17 11 29 35 21 11 41 24 45 30 3 5 -54
-20 -127 -57 -73 -37 -142 -70 -153 -75 -11 -4 -56 -21 -99 -38 -95 -37 -151
-47 -172 -30 -29 25 18 115 170 331 178 253 223 299 491 507 6 4 57 37 115 74
190 119 333 181 445 194 62 8 87 20 148 74 40 36 47 47 47 79 0 35 -28 80 -41
66 -3 -2 -29 -7 -58 -11 -39 -5 -52 -3 -47 5 4 6 0 11 -9 11 -9 0 -14 4 -10 9
3 6 -6 8 -20 5 -14 -2 -25 0 -25 6 0 14 -11 12 -45 -8z"/>
<path d="M2965 2510 c-3 -5 -12 -7 -20 -4 -9 4 -18 -3 -24 -18 -7 -19 -17 -24
-45 -25 -20 -1 -39 3 -42 8 -17 29 -44 -22 -44 -86 0 -24 -5 -56 -10 -71 -13
-33 -1 -54 74 -129 53 -54 81 -71 91 -55 4 6 15 10 26 10 26 0 76 55 84 92 4
15 11 30 16 33 5 4 9 21 9 38 0 36 8 51 32 60 13 4 15 15 12 48 -2 24 -8 47
-12 51 -5 5 -30 10 -57 12 -39 2 -50 7 -56 24 -9 23 -24 29 -34 12z"/>
<path d="M1804 1923 c-15 -20 -23 -33 -16 -29 13 8 56 66 49 66 -3 0 -17 -17
-33 -37z"/>
<path d="M1629 1663 c-13 -16 -12 -17 4 -4 9 7 17 15 17 17 0 8 -8 3 -21 -13z"/>
<path d="M1576 1588 c-51 -81 -97 -161 -93 -164 2 -2 20 25 40 59 20 34 46 77
58 95 11 17 18 32 15 32 -3 0 -12 -10 -20 -22z"/>
<path d="M1463 1398 c-15 -20 -25 -38 -20 -38 3 0 12 11 21 25 17 26 16 35 -1
13z"/>
<path d="M1346 1203 c-6 -14 -5 -15 5 -6 7 7 10 15 7 18 -3 3 -9 -2 -12 -12z"/>
<path d="M1265 1040 c-3 -5 -1 -10 4 -10 6 0 11 5 11 10 0 6 -2 10 -4 10 -3 0
-8 -4 -11 -10z"/>
<path d="M1147 728 c-7 -13 -37 -63 -67 -113 -29 -49 -60 -100 -68 -112 -8
-13 -12 -23 -9 -23 6 0 87 115 87 123 0 2 18 36 39 76 22 39 38 71 35 71 -2 0
-10 -10 -17 -22z"/>
<path d="M980 455 c-7 -9 -11 -17 -9 -20 3 -2 10 5 17 15 14 24 10 26 -8 5z"/>
<path d="M1034 358 l-19 -23 23 19 c21 18 27 26 19 26 -2 0 -12 -10 -23 -22z"/>
</g>
</svg>
